<svg xmlns="http://www.w3.org/2000/svg" viewBox="0 0 64 64" fill="none">
  <rect width="64" height="64" rx="14" fill="#050608"/>
  <path d="M32 6 52.2 18v28L32 58 11.8 46V18L32 6Z" stroke="#5eb3ff" stroke-width="2.5" fill="none"/>
  <path d="M39.5 19c0-3.2-2.5-5.5-7-5.5-3.8 0-6.5 1.7-6.5 4.5 0 2.4 1.9 3.6 6 4.6 5.4 1.3 8.2 3.2 8.2 7.6 0 4.5-4.2 7.4-10 7.4-6 0-10.2-3-10.8-7.8" stroke="#5eb3ff" stroke-width="3" stroke-linecap="round"/>
  <line x1="17" y1="46" x2="47" y2="46" stroke="#5eb3ff" stroke-width="2.2" stroke-linecap="round"/>
  <circle cx="17" cy="46" r="2.8" fill="#050608" stroke="#5eb3ff" stroke-width="1.8"/>
  <circle cx="47" cy="46" r="2.8" fill="#050608" stroke="#5eb3ff" stroke-width="1.8"/>
</svg>
